<svg width="18" height="18" viewBox="0 0 18 18" fill="none" xmlns="http://www.w3.org/2000/svg">
<rect width="18" height="18" rx="5" fill="#475694"/>
<path d="M4.38916 9.00029C4.38916 6.44579 6.44963 4.38532 9.00413 4.38532C11.5586 4.38532 13.6191 6.44579 13.6191 9.00029C13.6191 11.5548 11.5586 13.6153 9.00413 13.6153C6.44963 13.6153 4.38916 11.5548 4.38916 9.00029Z" fill="#F5F7FF"/>
<path d="M13.8079 5.27297C14.4023 5.27297 14.8843 4.795 14.8843 4.19654C14.8843 3.6021 14.4023 3.12012 13.8079 3.12012C13.2134 3.12012 12.7315 3.6021 12.7315 4.19654C12.7315 4.79099 13.2094 5.27297 13.8079 5.27297Z" fill="#F5F7FF"/>
<circle cx="9" cy="9" r="3" fill="#475694"/>
</svg>
