<svg width="18" height="14" viewBox="0 0 18 14" fill="none" xmlns="http://www.w3.org/2000/svg">
<path d="M17.6239 2.19053C17.4169 1.32829 16.8069 0.649214 16.0325 0.41876C14.6288 0 9 0 9 0C9 0 3.37127 0 1.96752 0.41876C1.19308 0.64925 0.583143 1.32829 0.376127 2.19053C0 3.75339 0 7.01415 0 7.01415C0 7.01415 0 10.2749 0.376127 11.8378C0.583143 12.7 1.19308 13.3508 1.96752 13.5812C3.37127 14 9 14 9 14C9 14 14.6287 14 16.0325 13.5812C16.8069 13.3508 17.4169 12.7 17.6239 11.8378C18 10.2749 18 7.01415 18 7.01415C18 7.01415 18 3.75339 17.6239 2.19053ZM7.15908 9.97467V4.05362L11.8636 7.01422L7.15908 9.97467Z" fill="#475694"/>
</svg>
