<svg width="30" height="30" viewBox="0 0 30 30" fill="none" xmlns="http://www.w3.org/2000/svg">
<path d="M15 30C23.2843 30 30 23.2843 30 15C30 6.71573 23.2843 0 15 0C6.71573 0 0 6.71573 0 15C0 23.2843 6.71573 30 15 30Z" fill="#6DA544"/>
<path d="M14.9997 5.86914L27.391 14.9996L14.9997 24.13L2.6084 14.9996L14.9997 5.86914Z" fill="#FFDA44"/>
<path d="M14.9996 20.2179C17.8811 20.2179 20.217 17.882 20.217 15.0006C20.217 12.1191 17.8811 9.7832 14.9996 9.7832C12.1181 9.7832 9.78223 12.1191 9.78223 15.0006C9.78223 17.882 12.1181 20.2179 14.9996 20.2179Z" fill="#F0F0F0"/>
<path d="M12.3912 14.6738C11.4839 14.6738 10.6084 14.8118 9.78418 15.0679C9.82068 17.9179 12.1412 20.2173 14.9999 20.2173C16.7676 20.2173 18.3287 19.3374 19.2725 17.9926C17.6578 15.9713 15.1734 14.6738 12.3912 14.6738Z" fill="#0052B4"/>
<path d="M20.1202 16.0002C20.183 15.6765 20.2169 15.3426 20.2169 15.0006C20.2169 12.119 17.881 9.7832 14.9996 9.7832C12.8495 9.7832 11.0038 11.084 10.2051 12.9413C10.9111 12.795 11.6421 12.718 12.3909 12.718C15.4212 12.7179 18.1626 13.9776 20.1202 16.0002Z" fill="#0052B4"/>
</svg>
