<svg width="30" height="30" viewBox="0 0 30 30" fill="none" xmlns="http://www.w3.org/2000/svg">
<g clip-path="url(#clip0)">
<path d="M15 30C23.2843 30 30 23.2843 30 15C30 6.71573 23.2843 0 15 0C6.71573 0 0 6.71573 0 15C0 23.2843 6.71573 30 15 30Z" fill="#F0F0F0"/>
<path d="M30 15.0002C30 23.2845 23.2842 30.0002 15 30.0002C6.71578 30.0002 0 23.2845 0 15.0002C0 6.71602 15 15.0002 15 15.0002C15 15.0002 26.3532 15.0002 30 15.0002Z" fill="#D80027"/>
<path d="M0 15C0 6.71578 6.71578 0 15 0C15 5.70439 15 15 15 15C15 15 5.21736 15 0 15Z" fill="#0052B4"/>
<path d="M8.92891 5.2168L9.90021 8.20613H13.0434L10.5005 10.0536L11.4718 13.0429L8.92891 11.1954L6.38605 13.0429L7.3573 10.0536L4.81445 8.20613H7.9576L8.92891 5.2168Z" fill="#F0F0F0"/>
</g>
<defs>
<clipPath id="clip0">
<rect width="30" height="30" fill="white"/>
</clipPath>
</defs>
</svg>
