<svg width="140" height="27" viewBox="0 0 140 27" fill="none" xmlns="http://www.w3.org/2000/svg">
<path d="M47.2927 12.1674H50.1874V18.7335C49.3402 19.4081 48.3517 19.9259 47.2221 20.2868C46.0924 20.6476 44.9314 20.8281 43.739 20.8281C42.0602 20.8281 40.5461 20.4672 39.1968 19.7455C37.8475 19.0081 36.7884 17.9961 36.0196 16.7095C35.2509 15.423 34.8665 13.9717 34.8665 12.3556C34.8665 10.7396 35.2509 9.2883 36.0196 8.00175C36.7884 6.71519 37.8475 5.71105 39.1968 4.98932C40.5618 4.25191 42.0916 3.8832 43.786 3.8832C45.1667 3.8832 46.4219 4.1107 47.5516 4.5657C48.6812 5.0207 49.6305 5.68752 50.3992 6.56614L48.4694 8.4489C47.2142 7.19373 45.7002 6.56614 43.9273 6.56614C42.7662 6.56614 41.7307 6.80933 40.8207 7.29571C39.9264 7.78209 39.2203 8.46459 38.7026 9.34321C38.2005 10.2218 37.9495 11.226 37.9495 12.3556C37.9495 13.4539 38.2005 14.4424 38.7026 15.321C39.2203 16.1996 39.9264 16.89 40.8207 17.392C41.7307 17.8941 42.7584 18.1451 43.9037 18.1451C45.1903 18.1451 46.3199 17.8627 47.2927 17.2979V12.1674Z" fill="#FFFFFF"/>
<path d="M53.9403 3.1301H56.8821V20.5927H53.9403V3.1301Z" fill="#FFFFFF"/>
<path d="M66.3915 20.7575C65.1207 20.7575 63.9753 20.4829 62.9555 19.9338C61.9356 19.3846 61.1355 18.6237 60.555 17.6509C59.9901 16.6625 59.7077 15.5485 59.7077 14.309C59.7077 13.0695 59.9901 11.9634 60.555 10.9906C61.1355 10.0179 61.9356 9.25692 62.9555 8.70778C63.9753 8.15864 65.1207 7.88407 66.3915 7.88407C67.6781 7.88407 68.8313 8.15864 69.8511 8.70778C70.8709 9.25692 71.6632 10.0179 72.2281 10.9906C72.8086 11.9634 73.0989 13.0695 73.0989 14.309C73.0989 15.5485 72.8086 16.6625 72.2281 17.6509C71.6632 18.6237 70.8709 19.3846 69.8511 19.9338C68.8313 20.4829 67.6781 20.7575 66.3915 20.7575ZM66.3915 18.2393C67.4741 18.2393 68.3684 17.8784 69.0745 17.1567C69.7805 16.435 70.1335 15.4857 70.1335 14.309C70.1335 13.1323 69.7805 12.183 69.0745 11.4613C68.3684 10.7396 67.4741 10.3787 66.3915 10.3787C65.3089 10.3787 64.4146 10.7396 63.7086 11.4613C63.0182 12.183 62.6731 13.1323 62.6731 14.309C62.6731 15.4857 63.0182 16.435 63.7086 17.1567C64.4146 17.8784 65.3089 18.2393 66.3915 18.2393Z" fill="#FFFFFF"/>
<path d="M82.8782 7.88407C84.102 7.88407 85.1924 8.1508 86.1495 8.68425C87.1223 9.2177 87.8832 9.9708 88.4323 10.9436C88.9815 11.9163 89.2561 13.0381 89.2561 14.309C89.2561 15.5799 88.9815 16.7095 88.4323 17.698C87.8832 18.6707 87.1223 19.4238 86.1495 19.9573C85.1924 20.4907 84.102 20.7575 82.8782 20.7575C82.0153 20.7575 81.2229 20.6084 80.5012 20.3103C79.7952 20.0122 79.199 19.565 78.7126 18.9688V20.5927H75.912V3.1301H78.8538V9.55503C79.3559 9.00589 79.9442 8.59011 80.6189 8.30769C81.3092 8.02528 82.0623 7.88407 82.8782 7.88407ZM82.5487 18.2393C83.6313 18.2393 84.5178 17.8784 85.2081 17.1567C85.9142 16.435 86.2672 15.4857 86.2672 14.309C86.2672 13.1323 85.9142 12.183 85.2081 11.4613C84.5178 10.7396 83.6313 10.3787 82.5487 10.3787C81.8427 10.3787 81.2072 10.5435 80.6424 10.873C80.0776 11.1868 79.6304 11.6418 79.3009 12.238C78.9715 12.8342 78.8067 13.5245 78.8067 14.309C78.8067 15.0935 78.9715 15.7838 79.3009 16.38C79.6304 16.9762 80.0776 17.4391 80.6424 17.7686C81.2072 18.0824 81.8427 18.2393 82.5487 18.2393Z" fill="#FFFFFF"/>
<path d="M96.6862 7.88407C98.5375 7.88407 99.9496 8.33123 100.922 9.22554C101.911 10.1042 102.405 11.4378 102.405 13.2264V20.5927H99.628V19.063C99.2671 19.6121 98.7494 20.0357 98.0747 20.3338C97.4157 20.6163 96.6156 20.7575 95.6742 20.7575C94.7328 20.7575 93.9091 20.6006 93.2031 20.2868C92.497 19.9573 91.9479 19.5101 91.5556 18.9453C91.1791 18.3648 90.9908 17.7137 90.9908 16.9919C90.9908 15.8623 91.4066 14.9601 92.2381 14.2855C93.0854 13.5951 94.4112 13.2499 96.2155 13.2499H99.4632V13.0617C99.4632 12.183 99.1965 11.5084 98.6631 11.0377C98.1453 10.567 97.3687 10.3317 96.3331 10.3317C95.6271 10.3317 94.9289 10.4415 94.2386 10.6611C93.5639 10.8808 92.9912 11.1868 92.5205 11.579L91.3674 9.43735C92.0263 8.93528 92.8187 8.55088 93.7443 8.28416C94.67 8.01744 95.6506 7.88407 96.6862 7.88407ZM96.2861 18.6158C97.0235 18.6158 97.6746 18.4511 98.2394 18.1216C98.82 17.7764 99.2279 17.29 99.4632 16.6625V15.2033H96.4273C94.7328 15.2033 93.8856 15.7603 93.8856 16.8743C93.8856 17.4077 94.0974 17.8313 94.521 18.1451C94.9446 18.4589 95.533 18.6158 96.2861 18.6158Z" fill="#FFFFFF"/>
<path d="M106.181 3.1301H109.122V20.5927H106.181V3.1301Z" fill="#FFFFFF"/>
<path d="M119.573 10.4258C120.656 10.4258 121.628 10.6376 122.491 11.0612C123.354 11.4692 124.029 12.0575 124.515 12.8263C125.002 13.5951 125.245 14.4816 125.245 15.4857C125.245 16.5526 124.978 17.494 124.445 18.3099C123.911 19.11 123.19 19.7298 122.28 20.1691C121.37 20.6084 120.35 20.8281 119.22 20.8281C116.961 20.8281 115.204 20.122 113.948 18.71C112.709 17.2979 112.089 15.2739 112.089 12.638C112.089 10.7867 112.426 9.20985 113.101 7.90761C113.776 6.58967 114.717 5.59338 115.925 4.91872C117.149 4.22838 118.561 3.8832 120.161 3.8832C121.009 3.8832 121.801 3.97734 122.538 4.16562C123.292 4.3382 123.943 4.59708 124.492 4.94226L123.362 7.24864C122.546 6.71519 121.503 6.44847 120.232 6.44847C118.647 6.44847 117.408 6.93485 116.514 7.90761C115.619 8.88037 115.172 10.2846 115.172 12.1203V12.1438C115.659 11.579 116.278 11.1554 117.031 10.873C117.785 10.5749 118.632 10.4258 119.573 10.4258ZM119.055 18.4275C120.012 18.4275 120.789 18.1765 121.385 17.6744C121.981 17.1567 122.28 16.4742 122.28 15.6269C122.28 14.764 121.981 14.0815 121.385 13.5794C120.789 13.0774 119.989 12.8263 118.985 12.8263C117.996 12.8263 117.188 13.0931 116.561 13.6265C115.949 14.1599 115.643 14.8346 115.643 15.6505C115.643 16.4506 115.941 17.1175 116.537 17.6509C117.149 18.1687 117.988 18.4275 119.055 18.4275Z" fill="#FFFFFF"/>
<path d="M134.328 10.4258C135.411 10.4258 136.384 10.6376 137.246 11.0612C138.109 11.4692 138.784 12.0575 139.27 12.8263C139.757 13.5951 140 14.4816 140 15.4857C140 16.5526 139.733 17.494 139.2 18.3099C138.666 19.11 137.945 19.7298 137.035 20.1691C136.125 20.6084 135.105 20.8281 133.975 20.8281C131.716 20.8281 129.959 20.122 128.703 18.71C127.464 17.2979 126.844 15.2739 126.844 12.638C126.844 10.7867 127.182 9.20985 127.856 7.90761C128.531 6.58967 129.472 5.59338 130.68 4.91872C131.904 4.22838 133.316 3.8832 134.917 3.8832C135.764 3.8832 136.556 3.97734 137.294 4.16562C138.047 4.3382 138.698 4.59708 139.247 4.94226L138.117 7.24864C137.301 6.71519 136.258 6.44847 134.987 6.44847C133.402 6.44847 132.163 6.93485 131.269 7.90761C130.374 8.88037 129.927 10.2846 129.927 12.1203V12.1438C130.414 11.579 131.033 11.1554 131.786 10.873C132.54 10.5749 133.387 10.4258 134.328 10.4258ZM133.81 18.4275C134.767 18.4275 135.544 18.1765 136.14 17.6744C136.737 17.1567 137.035 16.4742 137.035 15.6269C137.035 14.764 136.737 14.0815 136.14 13.5794C135.544 13.0774 134.744 12.8263 133.74 12.8263C132.751 12.8263 131.943 13.0931 131.316 13.6265C130.704 14.1599 130.398 14.8346 130.398 15.6505C130.398 16.4506 130.696 17.1175 131.292 17.6509C131.904 18.1687 132.744 18.4275 133.81 18.4275Z" fill="#FFFFFF"/>
<circle cx="13.2382" cy="13.2382" r="13.2382" fill="#FFFFFF"/>
<path d="M22.4665 12.9932C22.3143 11.2332 20.8254 9.85107 19.0087 9.85107C17.8382 9.85107 16.8034 10.4262 16.176 11.305C15.8061 11.8245 15.5743 12.446 15.5416 13.1254C15.5392 13.1787 15.5369 13.2344 15.5369 13.2877C15.5369 14.4913 14.5536 15.4652 13.3409 15.4652C13.3386 15.4652 13.3386 15.4652 13.3386 15.4652H13.3362C12.1259 15.4652 11.1403 14.4913 11.1403 13.2877C11.1403 13.2344 11.138 13.1787 11.1356 13.1254C11.1052 12.446 10.8734 11.8245 10.5012 11.305C9.88079 10.4262 8.84602 9.85107 7.67548 9.85107C5.85879 9.85107 4.36985 11.2332 4.21768 12.9932C4.21768 12.9932 4.20598 13.1347 4.20832 13.1695C4.23173 13.4964 4.5033 13.7585 4.84041 13.7585C5.19392 13.7585 5.46548 13.4709 5.47719 13.1277C5.51933 12.5642 5.77919 12.061 6.1725 11.6993C6.56814 11.3375 7.09489 11.1149 7.67314 11.1149C8.82964 11.1149 9.77778 12.003 9.86206 13.1277L9.87142 13.304C9.87377 14.0391 10.1079 14.7162 10.5059 15.2727C11.1333 16.1516 12.1704 16.7267 13.3386 16.7267C13.3409 16.7267 13.3409 16.7267 13.3409 16.7267H13.3433C14.5115 16.7267 15.5486 16.1516 16.176 15.2727C16.574 14.7162 16.8081 14.0391 16.8104 13.304L16.8198 13.1277C16.9041 12.0007 17.8522 11.1149 19.0087 11.1149C19.587 11.1149 20.1161 11.3375 20.5094 11.6993C20.9027 12.061 21.1625 12.5642 21.2047 13.1277C21.2187 13.4709 21.4903 13.7585 21.8414 13.7585C22.1786 13.7585 22.4501 13.4988 22.4735 13.1695C22.4782 13.1347 22.4665 12.9932 22.4665 12.9932Z" fill="#2746C7" stroke="#2746C7" stroke-width="0.5"/>
</svg>
