<svg width="33" height="32" viewBox="0 0 33 32" fill="none" xmlns="http://www.w3.org/2000/svg">
<path d="M32.7172 17.2662C32.4476 14.5573 31.3312 12.0026 29.527 9.9658C27.7227 7.92896 25.3227 6.51374 22.6684 5.92161V4.29427C23.1845 4.16612 23.6359 3.85328 23.9374 3.41479C24.2389 2.97631 24.3697 2.44251 24.305 1.91413C24.2403 1.38576 23.9847 0.899358 23.5864 0.546723C23.188 0.194089 22.6745 -0.000385884 22.1427 5.74871e-07H17.5329C17.0012 -0.000228928 16.4877 0.194357 16.0895 0.547043C15.6913 0.899728 15.4358 1.38612 15.3712 1.91445C15.3066 2.44278 15.4374 2.97651 15.7389 3.41493C16.0404 3.85334 16.4918 4.16613 17.0078 4.29427V5.92738C14.6191 6.45991 12.4319 7.66397 10.7032 9.39805C10.3147 9.78633 9.95117 10.1988 9.61477 10.6331C9.59877 10.6331 9.58276 10.6331 9.56611 10.6331H5.00491C4.8351 10.6331 4.67225 10.7007 4.55217 10.8209C4.4321 10.9411 4.36465 11.1041 4.36465 11.2741C4.36465 11.4441 4.4321 11.6071 4.55217 11.7273C4.67225 11.8475 4.8351 11.915 5.00491 11.915H8.74466C8.28036 12.6939 7.89964 13.5197 7.60884 14.3788H0.640259C0.556179 14.3788 0.472922 14.3953 0.395243 14.4276C0.317563 14.4598 0.246981 14.507 0.187527 14.5665C0.128074 14.626 0.0809126 14.6967 0.0487365 14.7744C0.0165605 14.8522 0 14.9355 0 15.0197C0 15.1897 0.0674552 15.3527 0.187527 15.4729C0.307599 15.5931 0.470452 15.6606 0.640259 15.6606H7.24709C7.06206 16.4698 6.95486 17.2948 6.92696 18.1244H4.09766C3.92785 18.1244 3.765 18.1919 3.64493 18.3121C3.52486 18.4323 3.4574 18.5954 3.4574 18.7653C3.4574 18.9353 3.52486 19.0983 3.64493 19.2185C3.765 19.3387 3.92785 19.4063 4.09766 19.4063H6.94937C7.00375 20.2382 7.13775 21.0631 7.34954 21.8694H3.2013C3.03149 21.8694 2.86864 21.9369 2.74856 22.0571C2.62849 22.1773 2.56104 22.3403 2.56104 22.5103C2.56104 22.6803 2.62849 22.8433 2.74856 22.9635C2.86864 23.0837 3.03149 23.1513 3.2013 23.1513H7.75802C8.61181 25.4022 10.0757 27.3702 11.9852 28.8341C13.8947 30.2981 16.1742 31.2 18.5675 31.4386C18.9901 31.4813 19.4131 31.5027 19.8365 31.5027C22.3424 31.5038 24.795 30.7778 26.8973 29.4126C27.0396 29.3198 27.1392 29.1742 27.1743 29.0078C27.2094 28.8414 27.177 28.668 27.0842 28.5255C26.9915 28.3831 26.8461 28.2833 26.6799 28.2482C26.5137 28.2131 26.3404 28.2456 26.1981 28.3384C21.6164 31.3251 15.4808 30.6771 11.6085 26.8033C7.0627 22.2527 7.0627 14.8543 11.6085 10.3056C16.1544 5.75689 23.5449 5.75497 28.0882 10.3056C31.9553 14.1769 32.6039 20.3145 29.6306 24.8985C29.5423 25.041 29.5133 25.2124 29.5499 25.376C29.5864 25.5397 29.6855 25.6824 29.826 25.7737C29.9665 25.8651 30.1371 25.8976 30.3013 25.8645C30.4655 25.8313 30.6101 25.7351 30.7043 25.5964C32.2976 23.1277 33.0072 20.191 32.7172 17.2662ZM16.6371 2.17983C16.6371 1.94184 16.7316 1.71361 16.8997 1.54533C17.0678 1.37705 17.2958 1.28251 17.5335 1.28251H22.1434C22.2611 1.28251 22.3776 1.30572 22.4864 1.35082C22.5951 1.39591 22.694 1.46201 22.7772 1.54533C22.8604 1.62865 22.9265 1.72757 22.9715 1.83644C23.0165 1.94531 23.0397 2.06199 23.0397 2.17983C23.0397 2.29766 23.0165 2.41434 22.9715 2.52321C22.9265 2.63208 22.8604 2.731 22.7772 2.81432C22.694 2.89764 22.5951 2.96374 22.4864 3.00883C22.3776 3.05393 22.2611 3.07714 22.1434 3.07714H17.5335C17.2958 3.07714 17.0678 2.9826 16.8997 2.81432C16.7316 2.64604 16.6371 2.41781 16.6371 2.17983ZM18.289 5.70498V4.35901H21.3885V5.70498C20.3589 5.58223 19.3184 5.58288 18.289 5.7069V5.70498Z" fill="#8B97CB"/>
<path d="M28.5418 26.6152C28.3936 26.6152 28.2501 26.6666 28.1356 26.7606C28.021 26.8547 27.9426 26.9855 27.9137 27.131C27.8848 27.2764 27.9071 27.4274 27.9769 27.5582C28.0467 27.689 28.1597 27.7915 28.2965 27.8482C28.4333 27.905 28.5856 27.9125 28.7274 27.8695C28.8691 27.8265 28.9916 27.7356 29.0739 27.6123C29.1562 27.489 29.1933 27.341 29.1788 27.1934C29.1643 27.0458 29.0992 26.9079 28.9944 26.803C28.8741 26.6831 28.7115 26.6157 28.5418 26.6152Z" fill="#8B97CB"/>
<path d="M19.848 8.61185C14.3712 8.61185 9.91504 13.0721 9.91504 18.5547C9.91504 24.0373 14.3719 28.4982 19.848 28.4982C25.3242 28.4982 29.781 24.0373 29.781 18.5547C29.781 13.0721 25.3254 8.61185 19.848 8.61185ZM19.848 27.2163C15.0768 27.2163 11.1956 23.331 11.1956 18.5553C11.1956 13.7797 15.0774 9.89372 19.848 9.89372C24.6186 9.89372 28.4998 13.7791 28.4998 18.5547C28.4998 23.3303 24.6192 27.2163 19.848 27.2163Z" fill="#8B97CB"/>
<path d="M23.8981 13.5939L20.7269 16.7691C20.4537 16.6338 20.153 16.5634 19.8482 16.5634C19.5433 16.5634 19.2426 16.6338 18.9694 16.7691L17.55 15.3482C17.429 15.2316 17.2671 15.1674 17.0992 15.1692C16.9313 15.171 16.7709 15.2387 16.6524 15.3578C16.5339 15.4769 16.4669 15.6378 16.4658 15.8059C16.4647 15.974 16.5296 16.1357 16.6466 16.2564L18.066 17.6773C17.9166 17.9809 17.8469 18.3177 17.8635 18.6557C17.8802 18.9938 17.9827 19.322 18.1613 19.6094C18.3399 19.8968 18.5887 20.1339 18.8842 20.2983C19.1798 20.4627 19.5123 20.5489 19.8504 20.5489C20.1885 20.5489 20.521 20.4627 20.8166 20.2983C21.1122 20.1339 21.361 19.8968 21.5396 19.6094C21.7181 19.322 21.8206 18.9938 21.8373 18.6557C21.8539 18.3177 21.7843 17.9809 21.6348 17.6773L24.7138 14.5931L24.8073 14.5002C24.9274 14.3799 24.9948 14.2169 24.9947 14.0468C24.9946 13.8768 24.9271 13.7138 24.807 13.5936C24.6868 13.4734 24.5239 13.4059 24.3541 13.406C24.1842 13.4061 24.0214 13.4736 23.9013 13.5939H23.8981ZM19.8478 19.2643C19.7075 19.2644 19.5702 19.2228 19.4535 19.1449C19.3367 19.0669 19.2457 18.956 19.1919 18.8262C19.1382 18.6964 19.124 18.5536 19.1514 18.4157C19.1788 18.2779 19.2463 18.1513 19.3456 18.052C19.4448 17.9526 19.5713 17.885 19.709 17.8576C19.8466 17.8302 19.9893 17.8443 20.119 17.8981C20.2486 17.952 20.3594 18.0431 20.4373 18.16C20.5152 18.2769 20.5567 18.4143 20.5566 18.5548C20.5563 18.7428 20.4815 18.9231 20.3486 19.0561C20.2158 19.1891 20.0357 19.2639 19.8478 19.2643Z" fill="#9AA5D3"/>
<path d="M26.6947 17.9227H26.1012C25.9314 17.9227 25.7685 17.9902 25.6485 18.1104C25.5284 18.2306 25.4609 18.3936 25.4609 18.5636C25.4609 18.7336 25.5284 18.8966 25.6485 19.0168C25.7685 19.137 25.9314 19.2045 26.1012 19.2045H26.6947C26.7788 19.2045 26.8621 19.188 26.9397 19.1558C27.0174 19.1235 27.088 19.0763 27.1474 19.0168C27.2069 18.9573 27.2541 18.8866 27.2862 18.8089C27.3184 18.7311 27.335 18.6478 27.335 18.5636C27.335 18.4794 27.3184 18.3961 27.2862 18.3183C27.2541 18.2406 27.2069 18.1699 27.1474 18.1104C27.088 18.0509 27.0174 18.0037 26.9397 17.9715C26.8621 17.9392 26.7788 17.9227 26.6947 17.9227Z" fill="#9AA5D3"/>
<path d="M13.5954 17.9054H13.0026C12.8328 17.9054 12.6699 17.9729 12.5498 18.0931C12.4298 18.2133 12.3623 18.3763 12.3623 18.5463C12.3623 18.7163 12.4298 18.8793 12.5498 18.9995C12.6699 19.1197 12.8328 19.1873 13.0026 19.1873H13.5954C13.7653 19.1873 13.9281 19.1197 14.0482 18.9995C14.1682 18.8793 14.2357 18.7163 14.2357 18.5463C14.2357 18.3763 14.1682 18.2133 14.0482 18.0931C13.9281 17.9729 13.7653 17.9054 13.5954 17.9054Z" fill="#9AA5D3"/>
<path d="M19.8561 12.9363C20.0259 12.9363 20.1887 12.8688 20.3088 12.7486C20.4289 12.6284 20.4963 12.4654 20.4963 12.2954V11.7019C20.4963 11.5319 20.4289 11.3689 20.3088 11.2487C20.1887 11.1285 20.0259 11.0609 19.8561 11.0609C19.6863 11.0609 19.5234 11.1285 19.4033 11.2487C19.2833 11.3689 19.2158 11.5319 19.2158 11.7019V12.2954C19.2158 12.4654 19.2833 12.6284 19.4033 12.7486C19.5234 12.8688 19.6863 12.9363 19.8561 12.9363Z" fill="#9AA5D3"/>
<path d="M19.8405 24.1725C19.6706 24.1725 19.5078 24.2401 19.3877 24.3603C19.2677 24.4805 19.2002 24.6435 19.2002 24.8135V25.4076C19.2002 25.5776 19.2677 25.7406 19.3877 25.8608C19.5078 25.981 19.6706 26.0486 19.8405 26.0486C20.0103 26.0486 20.1731 25.981 20.2932 25.8608C20.4133 25.7406 20.4807 25.5776 20.4807 25.4076V24.8135C20.4807 24.6435 20.4133 24.4805 20.2932 24.3603C20.1731 24.2401 20.0103 24.1725 19.8405 24.1725Z" fill="#9AA5D3"/>
<path d="M0.640259 21.8683C0.470577 21.8689 0.307955 21.9364 0.187595 22.0561C0.0679881 22.1766 0.000593628 22.3394 0 22.5093C0.000455256 22.6792 0.0678706 22.842 0.187595 22.9624C0.307955 23.0822 0.470577 23.1496 0.640259 23.1502C0.809941 23.1496 0.972563 23.0822 1.09292 22.9624C1.21253 22.8419 1.27992 22.6791 1.28052 22.5093C1.27992 22.3394 1.21253 22.1766 1.09292 22.0561C0.972563 21.9364 0.809941 21.8689 0.640259 21.8683Z" fill="#8B97CB"/>
</svg>
