<svg xmlns="http://www.w3.org/2000/svg" viewBox="0 0 512 512">
<path fill="#01D196" d="M362.7,326.9c-6,4-10.7,13.3-10.7,20.5v68.9c0,17.5-14.2,31.7-31.7,31.7H95.7C78.2,448,64,433.8,64,416.3V191.7 c0-17.5,14.2-31.7,31.7-31.7h68.9c7.1,0,16.4-4.7,20.4-10.6C202.6,123.5,184.5,96,160,96H56.2C25.2,96,0,121.2,0,152.2V448 c0,35.3,28.6,64,64,64h288c35.4,0,64-28.7,64-64v-96C416,327.5,388.6,309.5,362.7,326.9z M502.6,9.4C496.8,3.6,488.8,0,480,0H320 c-25.5,0-42.1,29.7-22.5,53.7c4.5,5.5,11.3,8.5,18.3,8.5l87.8,0L178.7,290.7c-12.5,12.5-12.5,32.8,0,45.3 c12.5,12.5,32.8,12.5,45.3,0l224-226.8V192c0,17.7,14.3,31.1,31.1,31.1S512,209.7,512,192V31.1C512,23.2,508.4,15.2,502.6,9.4z"/>
</svg>